<svg id="Layer_1" data-name="Layer 1" xmlns="http://www.w3.org/2000/svg" viewBox="0 0 137.73 137.49"><title>Untitled-2</title><path d="M30.56,125.7c0-.48.07-1.47.22-3s.26-2.49.36-3a2.2,2.2,0,0,0,.94.14,2.17,2.17,0,0,0,.94-.14l.44-1.16,1.08-1.09,1.67-1.66c.58-.58,1.11-1.14,1.59-1.67s.82-.89,1-1.09c0,.1.09.22.29.37s.29.26.29.36a3.87,3.87,0,0,0,.29.87c.19.48.34.72.43.72a.13.13,0,0,0,.15.15h.29a1,1,0,0,0,.43-.08.77.77,0,0,1,.29-.07,1.27,1.27,0,0,0,.51-.21,1.26,1.26,0,0,1,.65-.22l1.16-1.16A.55.55,0,0,1,44,114q.23.21.36.36a.46.46,0,0,0,.29.14h.87a1.24,1.24,0,0,0,.44-.14,6.69,6.69,0,0,0,1-.29l.87-.29H49a3.51,3.51,0,0,1,.94.51,7.37,7.37,0,0,1,.94.65h1.74l.58-.58c.1-.1.49-.1,1.16,0a3,3,0,0,0,1.31,0,3.51,3.51,0,0,0,.5-.65.67.67,0,0,0,.08-.66h6.52c.09,0,.21-.14.36-.43a1.79,1.79,0,0,0,.22-.73l-.29-.28-.29-.29a4.34,4.34,0,0,0-.22-.8,9.76,9.76,0,0,0-.36-.94,5.6,5.6,0,0,0-.29-1.23,5.19,5.19,0,0,1-.29-1.24,2.72,2.72,0,0,0-.22-.65c-.15-.34-.29-.7-.44-1.09s-.26-.77-.36-1.15a3.84,3.84,0,0,1-.14-.73,2.62,2.62,0,0,0-.07-.43,2.38,2.38,0,0,1-.08-.58v-.73a1.28,1.28,0,0,1,.15-.58,4.65,4.65,0,0,1,.14-.94,4.43,4.43,0,0,1,.29-.94,1.61,1.61,0,0,0,.73-.15l.58-.29a1.34,1.34,0,0,0-.08-.94,3.45,3.45,0,0,1-.21-.94h-.29L61,97.3l-.58.29V92.23a8.28,8.28,0,0,0-.36-1.52,7.81,7.81,0,0,1-.37-1.52v-2.9a3.56,3.56,0,0,0-.29-.87,4.13,4.13,0,0,1-.29-.87,10.87,10.87,0,0,1,.66-1,6.43,6.43,0,0,1,.65-.87V80.93L59.1,82.09l-.29-.29a.46.46,0,0,1-.14-.29c-.1-.1-.12-.39-.07-.87s.07-.82.07-1a10,10,0,0,1-.36-2.1c-.15-1.2-.22-1.9-.22-2.1V75a2.35,2.35,0,0,1,.29-.73,1.53,1.53,0,0,1,.29-.43c0-.19,0-.63-.07-1.31s0-1.06.07-1.15A8.61,8.61,0,0,1,59,70.13c.24-.72.46-1.32.65-1.81a1.39,1.39,0,0,1,.37-.58c.24-.29.36-.48.36-.58l-.58-.58A3.07,3.07,0,0,0,59.1,66V60.06a2.86,2.86,0,0,1,.87.22,2.7,2.7,0,0,0,.87.22h.73l2.89-2.9V57l-.29-.29-.29-.29a2.64,2.64,0,0,1,0-1.23,2.38,2.38,0,0,0,0-1.23l-.57-.58L63,53.25l-.29.15a2.2,2.2,0,0,0-.66.58c-.24.29-.41.48-.5.58a3.66,3.66,0,0,1-.22.94,2.53,2.53,0,0,1-.51.94,1.26,1.26,0,0,0-.22-.65,1.27,1.27,0,0,1-.21-.51,4.1,4.1,0,0,0-.36-.29,1.06,1.06,0,0,1-.37-.43l-.58-.29a1.59,1.59,0,0,1-.43-.29h-.58c-.1,0-.36,0-.8.07s-.89.12-1.37.22-1,.17-1.38.22-.7.07-.8.07-.46,0-1.08.14a9.9,9.9,0,0,1-1.38.15,4.67,4.67,0,0,1-.94-.15,6.56,6.56,0,0,0-.8-.14L49,53.4,47.8,54V51.66c-.1.2-.39.36-.87.51a1.52,1.52,0,0,1-1,.07,1.28,1.28,0,0,0-.15-.58l-.43-.72a1.61,1.61,0,0,1-.73-.15,7,7,0,0,1-1-.43h-.72c0,.09-.15.21-.44.36a1.88,1.88,0,0,1-.58.22,1.64,1.64,0,0,0-.22-.58c-.14-.29-.26-.44-.36-.44a2.41,2.41,0,0,0-.65-.36q-.51-.23-.51-.36a.94.94,0,0,1-.43-.22c-.2-.15-.29-.27-.29-.36a1.13,1.13,0,0,0-.29-.51,1.05,1.05,0,0,1-.29-.65c-.2-.19-.49-.51-.87-.94a3.84,3.84,0,0,0-.87-.8c0-.19.17-.41.51-.65a2.18,2.18,0,0,0,.65-.65h.58a6.29,6.29,0,0,0,.8.65c.33.24.5.46.5.65v1a6.32,6.32,0,0,0,1.16.8,3.21,3.21,0,0,0,1.16.51c.29,0,.44-.19.44-.58v-.73a4.78,4.78,0,0,0-.73-1.45q-.72-1.16-.87-1.44v-.58a3.32,3.32,0,0,1,.22-.95,2.34,2.34,0,0,1,.36-.79c0-.19.19-.39.58-.58a4,4,0,0,1,1.16-.44,6.72,6.72,0,0,1,1.3-.29,2.4,2.4,0,0,1,.44-.58l.58-.58a2,2,0,0,1,.65.37c.34.24.55.31.65.21l1.16-1.15a1.87,1.87,0,0,1,.94-.44,6.56,6.56,0,0,1,.8-.14,2.58,2.58,0,0,1,.72.65c.29.34.49.5.58.5h1.74a3,3,0,0,0,.87-.43,6.34,6.34,0,0,0,1-.72l.29-.29.29-.29h.58a6.22,6.22,0,0,1,.5.65q.36.51.51.51a4.06,4.06,0,0,0,1.3-.58,5.53,5.53,0,0,1,1.16-.58h1.16a2.46,2.46,0,0,1,1,.5,9.37,9.37,0,0,1,.87.66l.29.14a.46.46,0,0,0,.29-.14,5.27,5.27,0,0,1,.94-.58,6.58,6.58,0,0,0,.94-.58h.58c.19.09.51.21.94.36a4.34,4.34,0,0,0,.8.22l.94.86.94.87.29.15.29-.15.58-.29a1.39,1.39,0,0,0,.43-.29.29.29,0,0,1,.22.08.29.29,0,0,0,.22.07,3.62,3.62,0,0,1,.14-.65,3.29,3.29,0,0,0,.15-.65l-.29-.29c-.1,0-.15,0-.15-.08s0-.07-.14-.07-.15-.05-.15-.14l-.57-1.16c0-.49.19-.73.57-.73.2.2.53.51,1,.94a4.41,4.41,0,0,1,.87,1,1.78,1.78,0,0,1,.43.87,3.75,3.75,0,0,1,.15.86,2.24,2.24,0,0,0,.65-.57,7,7,0,0,1,.51-.58,3,3,0,0,0,.36-.58,1.79,1.79,0,0,0,.22-.73h4.34a2.22,2.22,0,0,1,.87.29l.87.44a4,4,0,0,0,1,.65,4.35,4.35,0,0,1,.87.51v.57c-.1.29-.25.75-.44,1.38a7.72,7.72,0,0,0-.29,1.09,4.87,4.87,0,0,1-.65.5c-.34.25-.51.46-.51.66v1.16a8,8,0,0,1,.94-.37,3.58,3.58,0,0,1,1-.21,1.39,1.39,0,0,1,.58-.29c.28-.1.43-.2.43-.29l.58,1.16.36-.37a.63.63,0,0,1,.36-.21V42.1c-.09,0-.24-.17-.43-.51a1.81,1.81,0,0,1-.29-.65V38.48a7,7,0,0,1,.58-.51,9.82,9.82,0,0,1,.87-.65h.43a1.79,1.79,0,0,0,.73-.22,1.24,1.24,0,0,0,.58-.51,1.85,1.85,0,0,1,.21-.58,1.64,1.64,0,0,0,.22-.58.51.51,0,0,0,.58-.58l.58.58a5.09,5.09,0,0,1,.73,1.23c.28.63.48,1,.57,1.24a1.57,1.57,0,0,1,.29.36c.1.14.2.22.29.22.1.19.22.48.37.86a2.9,2.9,0,0,1,.21.87v2.47c0,.09-.24.26-.72.5a3.87,3.87,0,0,0-1,.66h-.73a3.27,3.27,0,0,1-.58.72l-.58.58V46.3a4.12,4.12,0,0,1,.36,1.38A11.93,11.93,0,0,1,89,49.2v2.46a.51.51,0,0,1-.58.58l-.43.14H87.5a.4.4,0,0,1-.29-.14l-.58-.58a3.26,3.26,0,0,0-.87-.43,3.12,3.12,0,0,0-1-.29H82.43c-.1,0-.29-.17-.58-.51s-.48-.51-.58-.51a5.89,5.89,0,0,0-1.08.36,7.5,7.5,0,0,0-1.38.66,2.31,2.31,0,0,1-.58.65,2.16,2.16,0,0,0-.58.65l-1.16-1.3-.58.72h-4.2c-.2,0-.41.29-.65.87s-.46,1.06-.65,1.45v2.46a3.18,3.18,0,0,0,.28.8A2.86,2.86,0,0,1,71,58a10.87,10.87,0,0,0,.66,1,7.76,7.76,0,0,0,.79,1l.44.44c.38.39.58.63.58.72v1.16c.09.2.29.58.58,1.16l.58,1.16v9.13c-.1.19-.29.56-.58,1.09s-.49.89-.58,1.08a6.58,6.58,0,0,1-.22,1.23,7.27,7.27,0,0,1-.36,1.24c0,.19,0,.53-.07,1s-.1,1-.15,1.59-.1,1.14-.14,1.67-.08.94-.08,1.23a.85.85,0,0,0-.43.22c-.2.14-.29.27-.29.36l-.15.29.15.29c0-.09.17-.22.51-.36a2.12,2.12,0,0,1,.65-.22.52.52,0,0,1,.58.58v.43a11.74,11.74,0,0,1-.29,1.6,10.42,10.42,0,0,0-.29,1.59v3.48a5.26,5.26,0,0,0,.72.94c.39.44.58.7.58.8a1.44,1.44,0,0,1-.5.8,1.38,1.38,0,0,1-.8.5v.58a10.92,10.92,0,0,1,.94.58,9.38,9.38,0,0,1,.8.58A5.31,5.31,0,0,1,75,98.53a15.52,15.52,0,0,1,.22,2.1v1.89A13,13,0,0,1,75,104a8.17,8.17,0,0,1-.36,1.44l-.44.15h-.43a.4.4,0,0,1-.29-.15l-1-.43-.14-.14a.4.4,0,0,1-.29-.15l-.29.29a2.44,2.44,0,0,0-.51.87,3.66,3.66,0,0,0-.22.72,1.68,1.68,0,0,0,.73.29,1.91,1.91,0,0,1,.72.29,10.67,10.67,0,0,0,.58.95,2.08,2.08,0,0,1,.44.94v1.16l3.62,3.62c.09,0,.29-.24.58-.73.09,0,.22-.26.36-.79a5.92,5.92,0,0,0,.22-.94l.29-.15a.43.43,0,0,1,.29.15,1.75,1.75,0,0,1,.72.21,2.72,2.72,0,0,1,.58.36h.58l1.74,2.47c0,.09,0,.14.15.14h.29l.29-.14c0-.1,0-.15.14-.15l.29-.14.58-.29h1.3a4.13,4.13,0,0,0,.87-.29,3,3,0,0,0,.87-.44h.73a.58.58,0,0,0,.14.44l.29.29h1.16a1.46,1.46,0,0,0,.73-.29,3.69,3.69,0,0,0,.57-.44h.58c.1.2.22.42.37.66a1.3,1.3,0,0,1,.21.65.52.52,0,0,0,.58.58h1.89a1.57,1.57,0,0,1,.36-.29c.14-.1.22-.2.22-.29a9.37,9.37,0,0,1,.14-1.23,10.17,10.17,0,0,0,.15-1.24,2.11,2.11,0,0,1,.43.29l.44.44a7.09,7.09,0,0,1,.29.72,1.41,1.41,0,0,1,.14.58.59.59,0,0,0,.15.44,5.73,5.73,0,0,1,.72,1,3.28,3.28,0,0,1,.43.87,5,5,0,0,0,1.31.29,11.28,11.28,0,0,0,1.45.15,1.58,1.58,0,0,1-.44,1.16c0,.09-.09.24-.29.43a.46.46,0,0,0-.14.29,1.7,1.7,0,0,1-.65-.36,1.78,1.78,0,0,0-.66-.36c-.19.09-.53.29-1,.58s-.72.48-.72.57,0,.44.21.73.41.48.51.58l.14.29a.46.46,0,0,1-.14.29c-.1.09-.34.29-.72.58s-.58.48-.58.58a1.46,1.46,0,0,0-.29.65,1.73,1.73,0,0,1-.29.65,1.1,1.1,0,0,0-.22.58,4.13,4.13,0,0,0-.07.58h-2.9v-.29a.46.46,0,0,1,.14-.29l.58-.58v-.72c-.09,0-.19-.08-.29-.22a1.57,1.57,0,0,0-.29-.36V117.3l-.58.58a10.61,10.61,0,0,1-.5,1.81c-.34,1-.56,1.61-.66,1.81a9.73,9.73,0,0,1-.86.65,2.39,2.39,0,0,1-1,.51l-.29.29a.38.38,0,0,0-.14.29c0,.09,0,.14-.15.14a1.6,1.6,0,0,0-.29.58,2.19,2.19,0,0,0-.14.58l-3.77-1.88a2.31,2.31,0,0,1-.15.72,1.54,1.54,0,0,1-.28.58.43.43,0,0,1-.29.15,1.19,1.19,0,0,0-.44.14l-.58.29-.14.29.14.29a4.13,4.13,0,0,0,.94.65,4.27,4.27,0,0,1,.8.51c.19,0,.63,0,1.3-.07s1.07,0,1.16.07.34.27.44.8a8.19,8.19,0,0,1,.14,1.08,2.17,2.17,0,0,0,.94.29c.53.1.8.19.8.29l.29.29a.41.41,0,0,0,.29.15c0,.29-.19.53-.58.72H86.63a5.12,5.12,0,0,1-.29-.94,6.24,6.24,0,0,1-.14-.8,1.84,1.84,0,0,0-.73-.43,2.31,2.31,0,0,0-.72-.15H84a1.21,1.21,0,0,0-.57.15v2.46h-1.6a9.76,9.76,0,0,1-2.32-.29,4.55,4.55,0,0,1-.87-.29c-.48-.19-.82-.34-1-.43H76.49a1.78,1.78,0,0,1-.58.29,1.73,1.73,0,0,0-.72.43v-1.59a.4.4,0,0,1-.29-.15h-.29a1.86,1.86,0,0,0-.29.8,4.77,4.77,0,0,0-.15.94.41.41,0,0,1-.29.15.62.62,0,0,1-.43.14.42.42,0,0,1-.29-.14.4.4,0,0,1-.29-.15l-.29-.58a1.25,1.25,0,0,1-.15-.58h-.14a.42.42,0,0,1-.29-.14l-.29.14a.55.55,0,0,0-.36.22.64.64,0,0,1-.37.22l-.14.14h-.29a.12.12,0,0,1-.14-.14,4.56,4.56,0,0,1-1.45-.73c-.78-.48-1.26-.77-1.45-.87h-.58l-.29.87c-.1.29-.2.53-.29.73a1.57,1.57,0,0,0-.29.36,4.1,4.1,0,0,1-.29.36,9.59,9.59,0,0,1-.29-1.81,11.68,11.68,0,0,0-.29-1.81,7.83,7.83,0,0,1-.44-1,7.09,7.09,0,0,1-.29-.72H63.31a2.86,2.86,0,0,1-.8-.29,2.86,2.86,0,0,0-.94-.29,2,2,0,0,0-.44.29l-.29.29c.48,0,.73.2.73.58a2.3,2.3,0,0,1,.65.22q.51.21.51.36l.29.58.29.58a.42.42,0,0,1,.14.29,2.57,2.57,0,0,0-.72.14,1.68,1.68,0,0,0-.58.29c-.1,0-.29.15-.58.44l-.73.72a1.57,1.57,0,0,0-.43,1.16H55.05l-2.18-.51a7.57,7.57,0,0,1-2-.65l-.29.29a.56.56,0,0,1-.43.15,1.69,1.69,0,0,0-.29.72c-.1.39-.19.58-.29.58l-.58.58H44.9a3,3,0,0,1-.36-.87,4.52,4.52,0,0,1-.22-1A.66.66,0,0,1,44,129a.55.55,0,0,0-.36-.22l-.72.44a5.88,5.88,0,0,1-.15,1,2.16,2.16,0,0,1-.29.87l-1.16-1.16a2.31,2.31,0,0,1-.58.65c-.29.24-.48.41-.58.51a1,1,0,0,1-.65.44,3.81,3.81,0,0,1-.65.14,1.91,1.91,0,0,0-.44.07,2.25,2.25,0,0,1-.58.08,4.48,4.48,0,0,1-.72-.08,4,4,0,0,0-.58-.07,6.87,6.87,0,0,1-1.23-.22,6,6,0,0,1-1.23-.36c0-.1-.25-.27-.73-.51a11.84,11.84,0,0,1-1.16-.65.48.48,0,0,0-.21-.43,3.19,3.19,0,0,1-.37-.29c-.09-.2-.26-.65-.5-1.38s-.42-1.23-.51-1.52v-.58ZM34,123.38c-.29,0-.44.2-.44.58s.15.58.44.58.43-.19.43-.58S34.33,123.38,34,123.38Zm8.4-3c-.19-.1-.29,0-.29.29s.1.38.29.29C42.83,120.72,42.83,120.53,42.44,120.34Zm3.48-77.66h.87V42.1Zm.87,87.22c-.49,0-.73.19-.73.58s.24.58.73.58c.19,0,.29-.19.29-.58S47,129.9,46.79,129.9Zm2.75-13.62c-.19-.19-.29-.17-.29.07s.1.37.29.37.29-.08.29-.22S49.73,116.28,49.54,116.28Zm1.88,8.26c.1-.09,0-.17-.14-.22a3.06,3.06,0,0,0-.73-.07,3,3,0,0,0-.72.07c-.19.05-.29.13-.29.22a1.37,1.37,0,0,0,1,.29C51,124.83,51.33,124.74,51.42,124.54Zm1.74.58h1.31l-.73-.58Zm2.47-8.84c-.29,0-.44.17-.44.51s.15.51.44.51.43-.17.43-.51S55.92,116.28,55.63,116.28Zm1-77.23c-.19,0-.29.2-.29.58s.1.58.29.58.44-.19.44-.58S56.93,39.05,56.64,39.05Zm.58,76.36h.87V115h-.87Zm4.35-1c-.2.09-.51.27-1,.51s-.74.41-.94.5a2.59,2.59,0,0,1-.14.58,1.86,1.86,0,0,1-.44.73v.58Zm0,2.9h.58l-.58-.58Zm.58-43c-.29,0-.44.2-.44.58s.15.58.44.58.43-.19.43-.58S62.44,74.26,62.15,74.26Zm.58,46.66a.25.25,0,0,0-.29-.29c-.2,0-.29.09-.29.29s.21.29.36.29S62.73,121.11,62.73,120.92Zm4.2-81.87c.09-.19-.1-.29-.58-.29s-.68.1-.58.29a.57.57,0,0,0,.58.29A.58.58,0,0,0,66.93,39.05Zm0,86.07q.28.15,1.23.51a3.83,3.83,0,0,1,1.23.65,4.48,4.48,0,0,1,.65.94,2.46,2.46,0,0,1,.37.94l.57-.58v-.14c0-.1,0-.15.08-.15s.07-.05.07-.14l-.15-.29a6.41,6.41,0,0,0-.5-1.09c-.24-.43-.41-.65-.51-.65a1.21,1.21,0,0,0-.72-.14h-1.6a.29.29,0,0,0-.22.07.28.28,0,0,1-.21.07Zm1.16-72.88a.94.94,0,0,0-.29.72h.43a.57.57,0,0,0,.36-.07.29.29,0,0,1,.22-.07l.58-.58v-1.3Zm.72,50.28c-.19-.2-.29-.17-.29.07s.1.36.29.36.29-.07.29-.22S69,102.52,68.81,102.52Zm1.6-59.84c-.2,0-.29.19-.29.58s.09.58.29.58.43-.2.43-.58S70.69,42.68,70.41,42.68Zm2.17,75.78c-.1,0-.15.05-.15.14a1.21,1.21,0,0,0-.43.14c-.2.1-.29.2-.29.29h1.16v-.57ZM72.43,49.2c-.19,0-.29.12-.29.36s.1.36.29.36Q73.16,49.63,72.43,49.2Zm-.14,52.45a.13.13,0,0,0,.14.14,1.19,1.19,0,0,0,.44.73h.58l.72-.73v-1.16a1.83,1.83,0,0,0-1.3-.58c-.29,0-.44.2-.44.58a.46.46,0,0,0-.14.29v.73Zm.43-37.53a3.2,3.2,0,0,0,.08.65,4.37,4.37,0,0,1,.07.51c0,.1.09.24.29.43l.29.29V64.12Zm.15,61.58,1.3-.58-.72-.58Zm2.32-83.6-.58.58c0,.09,0,.31-.08.65a5.62,5.62,0,0,0-.07.8l.73-.29a1.22,1.22,0,0,0,.5-.58,1.71,1.71,0,0,0,.22-.58l.15-.29V42.1Zm-.73,75.78a1.18,1.18,0,0,0,.07.36,1.18,1.18,0,0,1,.08.36l.29.29a.38.38,0,0,0,.29.14.57.57,0,0,0,.43-.14l.29-.29a1.1,1.1,0,0,0,.15-.72ZM79.53,42.1c.1-.19,0-.29-.36-.29s-.46.1-.36.29Q79.24,42.54,79.53,42.1Zm-.72,86.06h.72v-.58h-.72Zm.72-89.11a.58.58,0,0,0,0,1.16c.29,0,.44-.19.44-.58S79.82,39.05,79.53,39.05Zm0,7.68.58-.43-.58-.58Zm0,78.39h1.16l.58-.58-1.16-1.16Zm1.16-83.6c-.29,0-.43.19-.43.58s.14.58.43.58.44-.2.44-.58S81,41.52,80.69,41.52Zm.58-1.89c-.29,0-.43.22-.43.66s.14.65.43.65.44-.22.44-.65S81.56,39.63,81.27,39.63Zm3.48,5.51c-.29,0-.44.19-.44.58s.15.58.44.58a.58.58,0,0,0,0-1.16Zm1.45,5.22V48c0-.1-.1-.22-.29-.36a.87.87,0,0,0-.44-.22l-.72.58Zm2.32,68c-.39,0-.58.1-.58.29a2.61,2.61,0,0,0-.73.65c-.29.34-.48.51-.58.51a6.31,6.31,0,0,0-.29,1.45c-.09.77-.14,1.25-.14,1.45h1a5,5,0,0,1,.44-1.31,5.42,5.42,0,0,0,.43-1.23c.1-.43.19-.8.29-1.09a1.18,1.18,0,0,1,.07-.36A1.13,1.13,0,0,0,88.52,118.31Zm-1.31-78.1c.19.49.44.73.73.73a1.59,1.59,0,0,1,.43-.29c.39-.19.58-.34.58-.44v-.58a.51.51,0,0,0-.58-.58h-.43c-.49,0-.73.2-.73.58v.58Zm2.32,77.09c-.19-.1-.29,0-.29.29s.1.38.29.29.29-.08.29-.22S89.72,117.39,89.53,117.3Zm.73-75.64h.28a.38.38,0,0,0,.29-.14l.58-.58H90.26Z" transform="translate(-30.56 -34.85)"/><path d="M105,167.28a4.57,4.57,0,0,1,.22-1,3,3,0,0,1,.36-.87c0-.09,0-.41-.07-.94s0-.84.07-.94a2,2,0,0,1,.29-.65,1.83,1.83,0,0,0,.29-.66q0-.72.15-3.18c.09-1.64.14-2.71.14-3.19,0,.1,0,.14.15.14l.14.15a2.53,2.53,0,0,1,.37.58,2.27,2.27,0,0,0,.36.58l.14.14.44-.14.29-.29.29-.29a10.92,10.92,0,0,0-.58-.94,10,10,0,0,1-.58-.94v-.58a9.36,9.36,0,0,0,.65-1,3.51,3.51,0,0,0,.51-.94c0-.09,0-.31-.08-.65a5.47,5.47,0,0,1-.07-.65,1.41,1.41,0,0,0-.58.14c-.19.1-.34.1-.43,0s-.24-.09-.44-.29-.29-.33-.29-.43a2.32,2.32,0,0,0,.66-.58c.24-.29.45-.53.65-.73v-1.88a1.39,1.39,0,0,1-.29-.58c-.1-.29-.2-.43-.29-.43a3.15,3.15,0,0,0-.73-.8c-.38-.34-.58-.55-.58-.65q-.28-.15-.36-.87c0-.48-.07-.77-.07-.87h.87c0-.29,0-.94.07-2s.07-1.61.07-1.81-.07-.87-.21-2-.27-2-.37-2.46c-.09,0-.21-.36-.36-1.09s-.22-1.13-.22-1.23v-.72l1-1.89a12.72,12.72,0,0,1,.94-1.73v-.73a1.91,1.91,0,0,0-.65-.29,1.58,1.58,0,0,1-.66-.29,1.68,1.68,0,0,1-.29-.58,1.46,1.46,0,0,0-.29-.58V125c0-.1.08-.6.22-1.52a9.44,9.44,0,0,1,.36-1.67v-1a2.87,2.87,0,0,1-.36-.66,2.46,2.46,0,0,1-.22-.65c0-.19.08-.72.22-1.59a5,5,0,0,1,.36-1.45,15.69,15.69,0,0,0,.29-2.25c.1-1.11.22-2.26.37-3.47s.29-2.34.43-3.41a18.31,18.31,0,0,0,.22-2.32c.09,0,.22-.14.36-.43a1.79,1.79,0,0,0,.22-.73,5.41,5.41,0,0,0-.29-.94,4.39,4.39,0,0,1-.29-.94,4.13,4.13,0,0,1,.07-.58,4,4,0,0,0,.07-.58h-2a2.38,2.38,0,0,1,.15-.58,1.73,1.73,0,0,1,.43-.72.6.6,0,0,1,.22-.36l.36-.37a2.11,2.11,0,0,0,.58-.14,1.86,1.86,0,0,0,.73-.44,2.72,2.72,0,0,0,.36-.58,1.79,1.79,0,0,0,.22-.72v-.43l-.58-.29c-.39-.2-.58-.34-.58-.44-.29-.09-.92-.34-1.89-.72a13.52,13.52,0,0,0-1.3-.58H98.74c-.19.09-.62.29-1.3.58a4.66,4.66,0,0,0-1.3.72.51.51,0,0,1-.58-.58,1.6,1.6,0,0,0-.29-.58A1.38,1.38,0,0,1,95,94a8.36,8.36,0,0,1-.65-.72,2.17,2.17,0,0,0-.66-.58h-.58a.85.85,0,0,0-.43.22.6.6,0,0,0-.29.5,1.28,1.28,0,0,0-.15.58v.73c0-.1,0-.15-.14-.15s-.29-.05-.29-.14c-.19,0-.51-.24-.94-.73a6,6,0,0,1-.8-1,13.48,13.48,0,0,1-1-1.31,4.6,4.6,0,0,0-1-1.16,2.37,2.37,0,0,1-.29-.36.37.37,0,0,0-.29-.21H85.7c-.09,0-.21-.1-.36-.29a3.27,3.27,0,0,0-.36-.44l-.14-.29a.41.41,0,0,1,.14-.29.8.8,0,0,1,.65-.36c.34,0,.51-.12.51-.22V87.3a1,1,0,0,1,.07-.44.59.59,0,0,0,.07-.29,1.18,1.18,0,0,0-.07-.36,1.53,1.53,0,0,1-.07-.51v-.58a1.71,1.71,0,0,0-.22-.58A1.88,1.88,0,0,1,85.7,84c0-.09,0-.33-.07-.72a7,7,0,0,1-.07-.87V81.5a1.41,1.41,0,0,1,.14-.58,4.52,4.52,0,0,1,.22-1,5,5,0,0,0,.22-.87V77a.12.12,0,0,1,.14-.14.4.4,0,0,0,.29-.15l.29-.29a11.14,11.14,0,0,0,1.24.94,13.39,13.39,0,0,1,1.23.94c.09.2.29.15.58-.14A.4.4,0,0,1,90.2,78V74.69L91.07,79h1.3c.48-.19.72-.44.72-.73v-3l3.77.58v.58c-.1.19-.27.51-.51.94s-.31.75-.21.94a1.39,1.39,0,0,0,.43.29,2.23,2.23,0,0,1,.44.29.56.56,0,0,0,.43.15,3.21,3.21,0,0,0,1.16.29,4.84,4.84,0,0,1,1.3.29v.58a5.53,5.53,0,0,1-.58,1.16,4.06,4.06,0,0,0-.58,1.3.46.46,0,0,0-.14.29v.72a.42.42,0,0,0,.14.29l1.16.58h.73l1.23-.58,1.23-.57.58-.58a3.07,3.07,0,0,0,.58-.73v-.72l-.58-1.16c0-.2.19-.51.58-.94a4.78,4.78,0,0,0,.72-1c0-.09,0-.33-.07-.72s0-.58.07-.58a2.52,2.52,0,0,1,.87-.36,5,5,0,0,1,.87-.22,9.36,9.36,0,0,1,1-.65,3.51,3.51,0,0,1,.94-.51h.72a2.3,2.3,0,0,0,.58-.07,2.3,2.3,0,0,1,.58-.07,2.77,2.77,0,0,1,.51.07,3.21,3.21,0,0,0,.65.07h.72l.58.58a2.23,2.23,0,0,1,.66.22c.33.14.5.27.5.36V79c0,.09.1.19.29.29a1.45,1.45,0,0,1,.44.29c.09-.2.19-.41.29-.65a6.86,6.86,0,0,1,.29-.66c.19-.19.43-.45.72-.79s.48-.51.58-.51.29,0,.58.29.48.43.58.43h1.3a3.4,3.4,0,0,0,.87-.36,3.73,3.73,0,0,1,.87-.36,1.56,1.56,0,0,1,.8.36,1.77,1.77,0,0,0,.65.36,8.58,8.58,0,0,1,.94.15,6.81,6.81,0,0,0,1.09.14,12,12,0,0,1-.15,1.31,13,13,0,0,0-.14,1.59c0,.29-.19.44-.58.44h-.72V87a3,3,0,0,0,.36-.58,2.09,2.09,0,0,1,.36-.58,5.61,5.61,0,0,0,1-.87,4.57,4.57,0,0,0,.87-1,4.63,4.63,0,0,0,.73-1.52,6.79,6.79,0,0,0,.43-1.52.69.69,0,0,1,.15-.36c.09-.15.19-.31.29-.51a1.39,1.39,0,0,1,.29-.43l.29-.29a4.93,4.93,0,0,0,.14.72,3.9,3.9,0,0,1,.15.87c.29.29.48.44.58.44a5.61,5.61,0,0,0,1-.87,4.57,4.57,0,0,1,1-.87l.28-.15.15.15.29.87.29.87c.09.09.24.21.43.36a4.29,4.29,0,0,1,.44.36h1.16c.19.1.5.29.94.58a6.07,6.07,0,0,1,.94.73.92.92,0,0,1,.44.57,2.72,2.72,0,0,1,.14.58,1.71,1.71,0,0,1,.22-.58,2,2,0,0,1,.36-.57v-.73a2.09,2.09,0,0,0,.36-.58q.22-.43.36-.72a1.44,1.44,0,0,0,.44.79q.43.51.72.51a8.07,8.07,0,0,0,1.38.29,10.31,10.31,0,0,0,1.23.15,2.1,2.1,0,0,1-.14.86,1.46,1.46,0,0,0-.29.58,2.38,2.38,0,0,0-.15.58,4.61,4.61,0,0,0-.07,1.6c0,.87.07,1.4.07,1.59a2.3,2.3,0,0,1-.21.65l-.51,1.16c-.2.44-.36.85-.51,1.23a3.48,3.48,0,0,0-.22.73V94a2.67,2.67,0,0,1,.37.87,2.33,2.33,0,0,0,.36.87c0,.1,0,.29-.07.58s0,.48.07.58a.63.63,0,0,0,.29.51.9.9,0,0,0,.43.21.13.13,0,0,0,.15.15h.72a.13.13,0,0,0,.15-.15c.09,0,.24-.29.43-.87a6.07,6.07,0,0,0,.29-1c0-.09.19-.19.58-.29a1.68,1.68,0,0,0,.73-.29,2.08,2.08,0,0,0,.28-.87,2.33,2.33,0,0,1,.29-.87c0-.19,0-.63-.07-1.3S144,91,144,90.92h-1.16c.19-.19.51-.53.94-1s.75-.82.94-1a.13.13,0,0,1-.14-.14V88a1.22,1.22,0,0,0-.58.15,1.21,1.21,0,0,1-.43.14c-.1,0-.25-.09-.44-.29l-.29-.29a2.41,2.41,0,0,0-.65-.36,2.53,2.53,0,0,1-.65-.36V85.85a4.08,4.08,0,0,1,.58-.44,1.44,1.44,0,0,1,.72-.29h1.3a1.43,1.43,0,0,1,.73.29,4.79,4.79,0,0,1,.58.44,2.74,2.74,0,0,1,.22,1.16,4.29,4.29,0,0,0,.21,1.3v3.77c.1.29.22.72.37,1.3a13,13,0,0,0,.58,1.81c.24.63.45,1.24.65,1.81a9.4,9.4,0,0,0,.43,1.16,1.77,1.77,0,0,0,.58-.21,2.53,2.53,0,0,0,.58-.37c.1,0,.24-.09.44-.29s.29-.33.29-.43v-4.2a.51.51,0,0,1,.57-.58l.29-.15.29.15a9.58,9.58,0,0,1,1.16.8L153.51,94c0,.29.2.44.58.44a1.64,1.64,0,0,0,.22.72,2.09,2.09,0,0,0,.36.58,4,4,0,0,1-.07.58,4,4,0,0,0-.07.58h1.59c0,.29,0,.75.07,1.38a2,2,0,0,0,.37,1.23c0,.19.16.43.5.72a4,4,0,0,0,.8.58,3.85,3.85,0,0,0,.58,1,4,4,0,0,0,.58.72v3.19a6.72,6.72,0,0,1-.29,1.3,8,8,0,0,0-.29,1.16,4,4,0,0,0,.07.58,4,4,0,0,1,.07.58.13.13,0,0,0,.15.15H159l.29-.29c.19-.2.29-.34.29-.44h.72a7.71,7.71,0,0,0,.22,1.3,6.28,6.28,0,0,0,.36,1.31,20.24,20.24,0,0,0,1.89,2.46.51.51,0,0,0-.58.58,7.19,7.19,0,0,0,.21,1.23,6.54,6.54,0,0,0,.37,1.23c0,.1,0,.34-.08.73s0,.58.08.58l.57.58.29.14a.38.38,0,0,0,.29-.14c.1-.19.22-.41.37-.65a1.33,1.33,0,0,0,.21-.66,7.52,7.52,0,0,0-.21-1.23,6.81,6.81,0,0,0-.37-1.23h.58l1.09.36a2.47,2.47,0,0,1,.8.37,4.26,4.26,0,0,1,.94.86,3.93,3.93,0,0,0,.94.87c-.19.39-.51,1.07-.94,2a17.59,17.59,0,0,1-.94,1.89v1.16c0,.09.09.21.29.36s.29.26.29.36l.14.72a2.25,2.25,0,0,1-.07.58,1.91,1.91,0,0,0-.07.44l-.29.29a.41.41,0,0,0-.15.29.13.13,0,0,1-.14.14v1.74a9.37,9.37,0,0,1,.36,1,4.52,4.52,0,0,1,.22,1v.43a3.71,3.71,0,0,1-.22,1c-.15.43-.27.75-.36.94a.55.55,0,0,1-.22.36c-.14.15-.27.27-.36.36a.85.85,0,0,0-.22-.43c-.14-.19-.27-.29-.36-.29a.87.87,0,0,0-.58.14,1.12,1.12,0,0,1-.44.15v4.78a4.43,4.43,0,0,0-.79.58c-.34.29-.56.48-.65.58s-.34.29-.44.87a9.44,9.44,0,0,0-.14,1,.59.59,0,0,0-.37.22c-.14.14-.26.27-.36.36a4.79,4.79,0,0,1-.58.44,5,5,0,0,0-.58.43l-3.19,5.94-1.3-.58a11.86,11.86,0,0,1-.8,1.23,9.86,9.86,0,0,1-.94,1.23l-.58.58a2.1,2.1,0,0,0,.22.8,2,2,0,0,0,.36.65v.44c-.1.1-.14.17-.14.22a.4.4,0,0,1-.15.21l-.29.29h-.72a7.89,7.89,0,0,1-.94-.58,10.67,10.67,0,0,0-.95-.58c-.09,0-.14.05-.14.15a6.36,6.36,0,0,1-.29,1,1.91,1.91,0,0,0-.15,1.16,1.59,1.59,0,0,0,.58.58c.29.2.49.24.58.15a2.57,2.57,0,0,1-.14.72c-.1.29-.24.43-.44.43a2.07,2.07,0,0,1-.58.44l-.57.29a1.86,1.86,0,0,1-.44.29c-.19.1-.29.19-.29.29a12.37,12.37,0,0,1-.87,1.23,12.37,12.37,0,0,0-.87,1.23l-1,1a4.85,4.85,0,0,0-.87,1c-.1,0-.24.19-.44.58a1.39,1.39,0,0,1-.29.43c0,.1-.09.25-.29.44l-.29.29-.29.14a.38.38,0,0,1-.28-.14,2.36,2.36,0,0,1-.37-.65,2,2,0,0,0-.36-.65h-.58a6.88,6.88,0,0,1-.29,1.3,9.83,9.83,0,0,1-.43,1.3.51.51,0,0,1-.58.58,9.55,9.55,0,0,1-.58.94,6.8,6.8,0,0,1-.58.8,3.5,3.5,0,0,0-.44-.87,1.88,1.88,0,0,0-.87-.87,2,2,0,0,0-.58.22,2.59,2.59,0,0,0-.58.36c-.09.1-.31.32-.65.65s-.55.51-.65.51-.19-.17-.29-.51a1.73,1.73,0,0,0-.29-.65l-.29-.29-.29-.29c-.1,0-.24.1-.43.29s-.34.29-.44.29a3,3,0,0,1-.43.87,5.34,5.34,0,0,1-.73,1,2.28,2.28,0,0,1-.87.72c-.48.29-.82.48-1,.58a1,1,0,0,1-.22-.36.9.9,0,0,0-.21-.36l-.29-.58a2,2,0,0,0-.29-.44.4.4,0,0,1-.15-.29H129c0,.1-.17.34-.51.73s-.56.58-.65.58a9.37,9.37,0,0,1-1,.36,2.52,2.52,0,0,0-.87.36l-1.81.87-1.81.87a.13.13,0,0,1-.14.14h-.29a.42.42,0,0,1-.29-.14,7.12,7.12,0,0,0-.22-.94c-.15-.54-.31-.8-.51-.8a2.33,2.33,0,0,0-.87-.36,3,3,0,0,1-.87-.36l-.29-.29c-.29-.29-.43-.39-.43-.29l-.15-.15c-.09,0-.14,0-.14.07s0,.08-.15.08h-.14l-3,4.34c0,.1-.27.2-.8.29a5.4,5.4,0,0,0-1.09.29,1.22,1.22,0,0,1-.58.15h-1.3a.56.56,0,0,1-.43-.15,2.78,2.78,0,0,1-1.45-.58,6.34,6.34,0,0,0-1-.72c-.48-.29-.72-.49-.72-.58s-.1-.41,0-.94.09-.8,0-.8c-.1-.19-.41-.34-.94-.43a2.51,2.51,0,0,1-1-.29A.52.52,0,0,1,105,167.28ZM90.05,79.62c0-.2-.14-.29-.43-.29s-.39.09-.29.29a.25.25,0,0,0,.29.29A.47.47,0,0,0,90.05,79.62Zm2.32,10h.72v-.73h-.72Zm8.69,0c-.19,0-.29.21-.29.65s.1.65.29.65c.39,0,.58-.22.58-.65S101.45,89.62,101.06,89.62Zm2,3h.58v-.58Zm2.46.72c-.29,0-.43.17-.43.51s.14.51.43.51.44-.17.44-.51S105.84,93.38,105.55,93.38Zm3,41.44c.09,0,0,.15-.29.44l-.29.29a4.74,4.74,0,0,0-.29,1.3c-.1.68-.15,1.06-.15,1.16h1a.51.51,0,0,0,.58-.58,7.94,7.94,0,0,0,.36-1.31,6.54,6.54,0,0,1,.36-1.3h-1.3ZM108,162.93h.58v-.73Zm1.16-63.46h.72v-.73h-.72Zm.72,8.69c-.39,0-.58.22-.58.65s.19.66.58.66.58-.22.58-.66S110.29,108.16,109.9,108.16Zm0,52.16c.1.29.22.68.36,1.16s.27.72.37.72a3.53,3.53,0,0,0,.5.73c.24.29.41.48.51.58v-4.35c0-.09-.24-.29-.72-.58h-.29a2.53,2.53,0,0,0-.37.58,2.09,2.09,0,0,1-.36.58v.58Zm1.74-23.47c.19-.19.12-.29-.22-.29s-.5.1-.5.29Q111.64,137.57,111.64,136.85Zm0-39.27a.58.58,0,1,0,.58.58A.51.51,0,0,0,111.64,97.58Zm.72-4.92-.29,1.16a5.27,5.27,0,0,0-.21,1,3,3,0,0,1-.22.87v.73a4.81,4.81,0,0,0,.8-.58c.33-.29.5-.53.5-.73a4.52,4.52,0,0,0,.29-1.23,10.31,10.31,0,0,0,.15-1.23Zm.58,65.2.58-.58-.58-.58-.58.58Zm3.77-2.47c-.19,0-.29.15-.29.44s.1.39.29.29.29-.22.29-.36S116.9,155.49,116.71,155.39Zm.58,2a1.07,1.07,0,0,0,.15.44,2.4,2.4,0,0,0,.21.65,2.3,2.3,0,0,1,.22.65,3.07,3.07,0,0,1,.07,1.31c0,.67-.07,1.06-.07,1.16l.58.57c.19-.09.36-.38.51-.86a4.38,4.38,0,0,0,.21-1v-2.46l-.29-.29a.4.4,0,0,0-.21-.15.35.35,0,0,1-.22-.14,1.22,1.22,0,0,1-.58-.15h-.43c-.1,0-.15,0-.15-.14Zm4.35-2.6a7,7,0,0,0,1.16,1.66,7.39,7.39,0,0,0,1.3,1.38l.29.14h.29a.12.12,0,0,0,.14-.14c.1,0,.27-.19.51-.58s.46-.58.65-.58h1.89c.09,0,.19-.19.29-.58a1.68,1.68,0,0,1,.29-.73,4.05,4.05,0,0,0,1.23-.43,4.75,4.75,0,0,0,1.23-.72h.58c.09.09.24.21.43.36a1,1,0,0,0,.44.22h1.16c.09,0,.19-.17.29-.51a3.35,3.35,0,0,0,.14-.8,2,2,0,0,1,.73-.29,1.68,1.68,0,0,0,.72-.29c.19,0,.53-.26,1-.8l.86-.94.58.29a1.28,1.28,0,0,0,.58.15,2,2,0,0,0,1,.07c.48,0,.82-.07,1-.07a3,3,0,0,0,.65.72,4.28,4.28,0,0,0,.8.58V149a8.27,8.27,0,0,1,1.09.14,1.88,1.88,0,0,0,1.08,0,2.42,2.42,0,0,0,.66-.21,3,3,0,0,0,.65-.36,2.09,2.09,0,0,0,.22-1,2,2,0,0,1,.21-.94c0-.09.1-.19.29-.29a1.24,1.24,0,0,1,.44-.14,3.37,3.37,0,0,1,.65-.44,2,2,0,0,1,.65-.29,9.22,9.22,0,0,1,1.6-1.45c1-.77,1.64-1.3,2-1.59l.73-.72c.29-.29.48-.44.58-.44a17.48,17.48,0,0,0,.58-1.88,8.85,8.85,0,0,1,.72-2,12.18,12.18,0,0,1,.22-1.52,7,7,0,0,1,.36-1.52,2.91,2.91,0,0,1,.51-.87,9.92,9.92,0,0,0,.65-1,3.08,3.08,0,0,0,.36-.43c.15-.19.27-.29.37-.29a1.46,1.46,0,0,1,.57-.29,2.31,2.31,0,0,1,.73-.15,3.44,3.44,0,0,1,.65-.79q.51-.51.51-.66v-1.73l-.29-.29c-.1,0-.15-.1-.15-.29s-.05-.15-.14-.15l-.44.44a.42.42,0,0,0-.14.29c-.1,0-.22.19-.36.58a2.47,2.47,0,0,1-.37.72h-.57a2.17,2.17,0,0,1-.29-.36,3.57,3.57,0,0,0-.44-.51l-.43-.43c-.1,0-.08-.2.07-.58a2.25,2.25,0,0,1,.36-.73v-.58l-.58-.29-.58-.29c.1,0,0-.14-.29-.43l-.29-.29c-.19-.1-.43-.6-.72-1.52s-.49-1.47-.58-1.67a2.19,2.19,0,0,1-.73-.87c-.29-.48-.48-.82-.58-1q-.14,0-.36-.51a2.58,2.58,0,0,1-.22-.65,11,11,0,0,0-.94-1.31c-.53-.67-.84-1-.94-1-.1-.19-.22-.46-.36-.8a2.12,2.12,0,0,1-.22-.65,22.24,22.24,0,0,1-.36-2.46,25.86,25.86,0,0,1-.22-2.61l-.58-.43a2.58,2.58,0,0,1-.65.72,4.42,4.42,0,0,1-.8.58h-.43a3.73,3.73,0,0,0-.44-.65,1.11,1.11,0,0,1-.29-.65l-1.15.43a9.31,9.31,0,0,1-1-1.45c-.48-.77-.82-1.3-1-1.59,0-.29-.2-.44-.58-.44a4.39,4.39,0,0,1-.94-.29,3.63,3.63,0,0,1-.95-.43,10.07,10.07,0,0,1-.43-1.52,3.69,3.69,0,0,1-.15-1.67,4.48,4.48,0,0,1-1.23.72l-1.23.58h-.58a1.92,1.92,0,0,0,.44-.94,5.27,5.27,0,0,0,.14-.94.51.51,0,0,0-.58-.58,2.17,2.17,0,0,1-.36.29c-.15.1-.22.2-.22.29a3.34,3.34,0,0,0-.43.65c-.2.34-.34.51-.44.51l-.14-.14c-.2-.2-.29-.34-.29-.44a2.09,2.09,0,0,1-.36-.58,2.53,2.53,0,0,0-.37-.58,1.19,1.19,0,0,1-.14-.72V99.9h-.15c-.09,0-.14,0-.14.15a3.37,3.37,0,0,0-.44.65,3.49,3.49,0,0,1-.43.65.51.51,0,0,1-.58.58c-.1,0-.17-.07-.22-.22a1.07,1.07,0,0,0-.21-.36c0-.09,0-.38.07-.87a2.08,2.08,0,0,0-.07-1,1.53,1.53,0,0,0-.29-.58,6.11,6.11,0,0,1-.44-.73,4.55,4.55,0,0,0-.29-.87,3.3,3.3,0,0,0-.43-.86h-.58a1.77,1.77,0,0,0-.58.21,1.71,1.71,0,0,1-.58.22h-.73l-.5,1.09c-.25.53-.46.79-.66.79l-.43.15h-.58a.41.41,0,0,1-.29-.15.4.4,0,0,1-.29-.14c-.19-.19-.29-.34-.29-.44a3.83,3.83,0,0,0,.65-1.23,4,4,0,0,1,.65-1.23,2.47,2.47,0,0,0,.37-.87,5.05,5.05,0,0,0,.21-.87l.58-.58.37-.72a1.77,1.77,0,0,0,.21-.58l.15-.29c0-.1,0-.15-.07-.15s-.08,0-.08-.14v-.15a1.17,1.17,0,0,0-.43-.72,1.19,1.19,0,0,0-.73-.44l-3,3.19v1.74l-1.23,1.23a10.61,10.61,0,0,1-1.38,1.23c-.09.1-.29.13-.58.08a4.48,4.48,0,0,0-.72-.08c0,.1-.1.2-.29.29s-.29.2-.29.29v3.77a5.7,5.7,0,0,1,.8-.29c.33-.09.5-.19.5-.29l.29.15h.15a.13.13,0,0,1,.14.14v.29a10.51,10.51,0,0,1-.87,1.3,4.26,4.26,0,0,1-1,1.16V105c.19-.09.51-.21.94-.36a3.75,3.75,0,0,1,.94-.22,1,1,0,0,1,.44.22c.19.15.29.27.29.36a1.88,1.88,0,0,1,.22.87,3.26,3.26,0,0,0,.21,1,4.33,4.33,0,0,1,.51,1.37,7.84,7.84,0,0,1,.22,1.24,1.84,1.84,0,0,0,.07.43,2.3,2.3,0,0,1,.07.58.62.62,0,0,1-.07.29.62.62,0,0,0-.07.29v.29c0,.29-.25.43-.73.43a3.43,3.43,0,0,1-.58.44,1.53,1.53,0,0,1-.58.29l-.58.58v.72c0,.1.1.24.29.44a.46.46,0,0,0,.29.14,2.59,2.59,0,0,0,.58-.14.91.91,0,0,0,.58-.44,2,2,0,0,0,.73-1.3.6.6,0,0,1,.14.43v.44c0,.67,0,1-.14,1,0,.2-.29.53-.87,1a4.82,4.82,0,0,0-1,1v2.32c0,.1.12.22.37.36s.36.27.36.36l.14.29-.14.15a.87.87,0,0,1-.29.58c-.2.19-.34.29-.44.29a1.6,1.6,0,0,1-.58-.29,5.17,5.17,0,0,1-.72-.58v.87c.19.09.46.58.8,1.45a7.27,7.27,0,0,1,.5,1.59c.1.1.12.48.08,1.16s-.08,1.11-.08,1.3l.29.29c.2.2.34.29.44.29a1.64,1.64,0,0,1,.72.22c.29.14.44.27.44.36V128c0,.1,0,.15.14.15a.38.38,0,0,0-.14.29v.29a4.16,4.16,0,0,1-.58,1.3,3.91,3.91,0,0,0-.58,1.3,3,3,0,0,0,.43.87,2.19,2.19,0,0,0,.73.87v8.7a3.69,3.69,0,0,0-.44.57,1.46,1.46,0,0,0-.29.73l.29.87a.85.85,0,0,0,.29.58.41.41,0,0,1,.15.29c.09.29.24.75.43,1.37a8.12,8.12,0,0,1,.29,1.09v1.31a.23.23,0,0,1-.14.21.74.74,0,0,0-.29.36l-.29.58v5.08Zm-2.47-63.9a.58.58,0,1,0,0,1.16c.29,0,.44-.19.44-.58S119.46,90.92,119.17,90.92Zm.58,42.89h.73v-.73Zm1.89-54.19c-.39,0-.58.22-.58.65s.19.65.58.65.58-.22.58-.65S122,79.62,121.64,79.62Zm.72.58a.58.58,0,1,0,0,1.16c.19,0,.29-.2.29-.58S122.55,80.2,122.36,80.2Zm1.16,87.66h.58v-.58ZM129,82.66c0,.1-.17.29-.51.58a2.58,2.58,0,0,0-.65.72v.58a3,3,0,0,0,.72-.58c.29-.29.44-.48.44-.57l.14-.29-.14-.29Zm.72,10v-.58H129Zm0,62.16c-.39,0-.58.21-.58.65s.19.65.58.65.58-.22.58-.65S130.14,154.82,129.75,154.82Zm1.16-60.42a.81.81,0,0,0-.22.36,1,1,0,0,1-.21.36,3,3,0,0,1-.15.65,2.92,2.92,0,0,0-.14.66h.72Zm0-4.78h.58v-.73ZM134.82,87c-.29-.1-.43,0-.43.29a.38.38,0,0,0,.43.43.46.46,0,0,0,.29-.43A.25.25,0,0,0,134.82,87Zm.58,5.07a4.43,4.43,0,0,1,.29.94A4.43,4.43,0,0,0,136,94l.29.15a.41.41,0,0,0,.29-.15,6.17,6.17,0,0,0,.36-1,2.88,2.88,0,0,1,.36-.87,2.75,2.75,0,0,1,.51-1.09c.34-.53.56-.8.65-.8l.15-.28a.4.4,0,0,0-.15-.29c-.29-.49-.48-.73-.58-.73h-.58c-.09.1-.31.29-.65.58a2.75,2.75,0,0,0-.65.72c-.1,0-.19.15-.29.44a5.34,5.34,0,0,1-.29.72v.73Zm1.74,5.07a.6.6,0,0,0,.14.43,2.15,2.15,0,0,0,.44,1,7.56,7.56,0,0,0,.72.94c0-.2,0-.51.08-.94s.07-.75.07-1,0-.53-.07-1-.08-.77-.08-.87a.58.58,0,0,0-1.16,0,.29.29,0,0,1-.07.22.29.29,0,0,0-.07.22v1Zm1.3-12c-.09,0-.19.1-.29.29a1.45,1.45,0,0,1-.29.44h.58l.37-.36a.62.62,0,0,0,.21-.37h-.58Zm0,67.81c-.29,0-.43.22-.43.65s.14.66.43.66.44-.22.44-.66S138.73,152.93,138.44,152.93Zm0,6.23H139v-1.3h-.58Zm1.16-57.95c0,.09.05.14.15.14.09.2.29.53.58,1s.48.72.58.72,0,.14.14.14h.29c.1,0,.15,0,.15-.14a4,4,0,0,0,.43-1.09,5.6,5.6,0,0,0,.29-1.23,4,4,0,0,1,.22-1,6.38,6.38,0,0,1,.36-1h-.58c0,.1-.1.24-.29.44s-.34.29-.43.29l-.58.29a1.45,1.45,0,0,0-.44.29c-.09,0-.24.09-.43.29s-.29.34-.29.43l-.15.15Zm6.23,6.23.73-.58h-.73Zm1.16-4.35c0,.19,0,.63.07,1.3a4.55,4.55,0,0,0,.22,1.31.85.85,0,0,0,.22.43c.14.2.26.29.36.29s.19-.09.29-.29a1.59,1.59,0,0,1,.29-.43,2.77,2.77,0,0,0,.58-1.31c0-.09-.17-.29-.51-.58a2.75,2.75,0,0,1-.65-.72Zm.87,51.15c-.29,0-.43.19-.43.58s.14.57.43.57.44-.19.44-.57S148.15,154.24,147.86,154.24Zm3-41.15a3,3,0,0,0-.72.58,1.17,1.17,0,0,0-.43.72,4.18,4.18,0,0,0-.29.8,3.14,3.14,0,0,0-.15.65,7.29,7.29,0,0,0,.87-.07c.39,0,.63-.07.72-.07a1.9,1.9,0,0,0,.29-.37,4.1,4.1,0,0,1,.29-.36v-1.16a3,3,0,0,1-.29-.36A1.57,1.57,0,0,0,150.9,113.09Zm1.31-18.69c-.2,0-.29.12-.29.36s.09.36.29.36Q152.5,94.84,152.21,94.4Zm2.46,4.34-.36.37a.55.55,0,0,0-.22.36,2.45,2.45,0,0,0-.22.72c0,.29-.07.49-.07.58h.87Zm.73,17.68c-.39,0-.58.17-.58.51s.19.5.58.5c.19,0,.29-.16.29-.5S155.59,116.42,155.4,116.42Zm0,19.13c-.29,0-.44.12-.44.36s.15.36.44.36Q156.12,135.55,155.4,135.55ZM157.86,115h.58v-.58h-.58Z" transform="translate(-30.56 -34.85)"/></svg>